<svg xmlns="http://www.w3.org/2000/svg" viewBox="0 0 253.43 460.06"><title>Asset 2</title><g id="Layer_2" data-name="Layer 2"><g id="Layer_1-2" data-name="Layer 1"><path id="freepik--Shadow--inject-2" d="M62.24,446.45l-12-6.93c-31.4-18.13-31.4-47.53,0-65.66l53.92-31.13c31.41-18.13,82.32-18.13,113.72,0l12,6.94c31.4,18.13,31.4,47.52,0,65.65L176,446.45C144.56,464.59,93.61,464.59,62.24,446.45Z" fill="#e0e0e0"/><g id="freepik--piggy-bank--inject-1"><g id="freepik--piggy-bank--inject-1-2" data-name="freepik--piggy-bank--inject-1"><path d="M201,232.62c12.59-1.86,19.11-7.9,23.45-15.41,3.18-5.49,4.46-15.06,3.13-22.16a39.2,39.2,0,0,0-4-11.37c2.28-5.76.94-12.21-1.83-17.76-3.52-7.09-10.31-12.39-18.61-11.39-1.35.2-.38,1.49.72,2,9.45,4.42,12.29,11.65,13.08,18.9a21.29,21.29,0,0,0-2.05-1.52c-6.74-4.39-17.66-5.61-25.19-2.6s-8.75,10.31-3.67,16.23c6.87,8,19.77,10.26,29,5.41a29.5,29.5,0,0,1,1.08,10.33c-.48,6.57-4,12.37-10.37,16.15a20.71,20.71,0,0,1-9.55,2.08c-4.33-.4-5.83-.64-9.67-2.34-1.77-.79-3.55.6-4.15,2.28C178.73,231.61,194.14,233.66,201,232.62Zm10.47-47.09c-3.72,1.9-9.08,2.81-12.95,1.28-2.5-1-4.41-2-5.67-3.69-2.17-2.93,1-4.31,4.44-4.31C203,178.91,208,181,211.44,185.53Z" fill="#f9c93c"/><path d="M214.93,193a29.88,29.88,0,0,1,1.07,5.78,18.46,18.46,0,0,0,10.87-6.42,39,39,0,0,0-3.33-8.59C222,187,220.47,189.81,214.93,193Z" fill="#fbd050"/><path d="M216.9,175.47s-.18,2.14-2.65,5a15,15,0,0,1-4.17,3.46,17.63,17.63,0,0,1,1.36,1.6C214.61,183.83,217.07,179,216.9,175.47Z" fill="#fbd050"/><path d="M109.68,427.55a.22.22,0,0,0,0,.08v.08h0c.55,3.06,2.85,6,6.92,8.38,9.4,5.43,24.65,5.43,34.06,0,4.06-2.38,6.37-5.32,6.92-8.38h0v-.11h0l1.74-10.87a57.24,57.24,0,0,1,15-30.31l3-3.11s-12.86,1.74-12.86,1.67v-.23h0c.63-5-2.35-10.16-9-14-12.1-7-31.71-7-43.8,0-6.68,3.82-9.67,9-9,14h0v.44Z" fill="#eabc37"/><path d="M174.31,390.18a.17.17,0,0,0,0,.07v.09h0c.55,3.06,2.85,6,6.92,8.38,9.4,5.43,24.65,5.43,34.06,0,4.06-2.38,6.37-5.32,6.92-8.38h0v-.12h0L225.68,369a157,157,0,0,1,14.92-45.46h0s-9.23,11.43-9.23,11.36v-.23h0c.66-5-3.9-4.18-12.2-4.18-14,0-38.1,0-42.74,2.82-6.59,4-9.67,9-9,14h0v.44Z" fill="#eabc37"/><path d="M88.43,403.41a.19.19,0,0,1,0,.08v.09h0c-.55,3.06-2.85,6-6.92,8.38-9.4,5.43-24.65,5.43-34.06,0-4.06-2.38-6.36-5.32-6.92-8.38h0v-.12h0l-9-55.07V348h0c-.66-5,3.9-4.18,12.2-4.18,14,0,38.1,0,42.74,2.82,6.59,4,9.67,9,9,14h0V361Z" fill="#eabc37"/><path d="M51.44,233.74C24.7,253,5.7,282.67,5.7,318a98.7,98.7,0,0,0,98.69,98.68c18.23,0,33.69-5.42,50-13.56,11.4-5.7,31.2-16.63,42.7-24.92,27.43-19.78,48.71-48.85,48.71-85.12a98.7,98.7,0,0,0-98.69-98.69c-16,0-31.61,4.06-45.34,10C86.48,211,66.68,222.74,51.44,233.74Z" fill="#fbd050"/><path d="M30.63,383.58a98.41,98.41,0,0,0,73.76,33.14c18.23,0,33.69-5.42,50-13.56,11.4-5.7,31.2-16.63,42.7-24.92,27.43-19.78,48.71-48.85,48.71-85.12a98.38,98.38,0,0,0-30.48-71.31c30.52,42.7,7.62,110.91-30.48,141.7S86,423.44,30.63,383.58Z" fill="#f9c93c"/><path d="M36.65,202.73c-3.76-.65-6.83-.31-8.76.82-1.26.74-4.42,2.56-4.42,2.56-5.9,12.73-1.9,58.82-1.9,58.82,11.65-19.72,29.87-22.4,45.11-18l15.24-8.8C72.45,221.61,55.47,206,36.65,202.73Z" fill="#ffecb6"/><path d="M32.39,205.19c-28.13-6.5-10.82,59.74-10.82,59.74,10.34-16.88,25.37-23.06,45.11-18C66.68,246.93,51.44,209.54,32.39,205.19Z" fill="#ffe089"/><path d="M21.57,264.93c10.34-16.88,25.37-23.06,45.11-18,0,0-10.23-13.33-28.57-6.6S21.57,264.88,21.57,264.93Z" fill="#d7ab2b"/><path d="M146.69,249.13c27.45,17.6,13.22,64.83,7.75,70.38l-14.6,8.37c-11-28.88-26-48.16-42.68-63.35C97.16,264.53,128.35,237.38,146.69,249.13Z" fill="#ffecb6"/><path d="M142.84,251.33c27.66,23.48-3,76.55-3,76.55-9.14-24.25-22.94-45.63-42.68-63.35C97.16,264.53,126.75,237.62,142.84,251.33Z" fill="#ffe089"/><path d="M139.84,327.88s2.07-25-11.45-43.55c-14.45-19.8-31.23-19.8-31.23-19.8C116.9,282.25,130.7,303.63,139.84,327.88Z" fill="#d7ab2b"/><path d="M8.69,323C3.3,326.15,0,332.68,0,342c0,19.43,14.51,43.56,32.37,53.92,9.24,5.33,17.58,5.94,23.48,2.6,2.63-1.49,12.83-7.4,15.44-8.93,5.4-3.19,8.71-9.72,8.71-19C80,351.1,65.52,327,47.63,316.65c-9.29-5.36-17.66-5.95-23.57-2.55Z" fill="#d7ab2b"/><path d="M64.78,379.34c0,19.44-14.51,26.83-32.39,16.5S0,361.39,0,342s14.5-26.83,32.38-16.5S64.78,359.9,64.78,379.34Z" fill="#f9c93c"/><path d="M16.32,381.91a61.25,61.25,0,0,0,16.07,13.93c17.89,10.32,32.39,2.94,32.39-16.5,0-11.37-5-24.34-12.66-35.21,9.07,14.29,14.34,37.89,6.16,49.15C49.54,405.31,27.58,395.41,16.32,381.91Z" fill="#ffe089"/><path d="M49.54,371.21c0,3.65-2.56,5.13-5.72,3.3a12.63,12.63,0,0,1-5.71-9.9c0-3.64,2.56-5.12,5.71-3.3A12.65,12.65,0,0,1,49.54,371.21Z" fill="#ffe089"/><path d="M47.63,372.31a6,6,0,0,0,1.66.68,6,6,0,0,0,.25-1.78,12.65,12.65,0,0,0-5.72-9.9,6.08,6.08,0,0,0-1.66-.67,6,6,0,0,0-.24,1.77A12.63,12.63,0,0,0,47.63,372.31Z" fill="#d7ab2b"/><path d="M26.72,358c0,3.64-2.56,5.12-5.72,3.29a12.63,12.63,0,0,1-5.71-9.89c0-3.65,2.56-5.13,5.71-3.3A12.62,12.62,0,0,1,26.72,358Z" fill="#ffe089"/><path d="M24.77,359.12a6.21,6.21,0,0,0,1.66.67,6,6,0,0,0,.25-1.77,12.62,12.62,0,0,0-5.72-9.9,5.71,5.71,0,0,0-1.66-.68,6,6,0,0,0-.24,1.78A12.67,12.67,0,0,0,24.77,359.12Z" fill="#d7ab2b"/><circle cx="89.54" cy="321.72" r="7.62" fill="#37474f"/><circle cx="32.39" cy="295.32" r="7.62" transform="translate(-199.34 109.4) rotate(-45)" fill="#37474f"/><polygon points="108.59 235.93 142.88 216.14 150.5 220.54 116.21 240.33 108.59 235.93" fill="#ffe089"/><polygon points="108.59 235.93 112.4 238.13 142.88 220.54 142.88 216.14 108.59 235.93" fill="#d7ab2b"/><polygon points="150.5 220.54 146.69 222.74 142.88 220.54 142.88 216.14 150.5 220.54" fill="#d7ab2b"/></g></g></g><g id="Layer_2-2" data-name="Layer 2"><g id="freepik--Character--inject-2"><g id="freepik--character--inject-2-2" data-name="freepik--character--inject-2"><path d="M224,25.12a81.17,81.17,0,0,1,4,34.61c-3.58,47.69-36.74,100.9-74.07,118.85a50,50,0,0,1-29.06,5.49L122,188.62l-15.27-13.46h0c-10.24-10-15.69-27.41-13.95-50.37C96.37,77.13,129.53,23.92,166.86,6c18-8.62,33.61-7.59,44.59,1.19h0l15.3,13.46Z" fill="#b5c4ff"/><path d="M225.2,78.23A132.77,132.77,0,0,0,228,59.73a81.17,81.17,0,0,0-4-34.61l2.84-4.55L211.51,7.1h0c-11-8.78-26.64-9.69-44.59-1.19a89.63,89.63,0,0,0-14.08,8.56Z" fill="#b5c4ff"/><path d="M180.94,18.24c-37.33,18-70.49,71-74.07,118.85s23.73,71.78,61.06,53.82,70.45-71,74.07-118.82S218.23.29,180.94,18.24Z" fill="#9cb7ec"/><path d="M217.91,82.94a113.62,113.62,0,0,1-16.79,45.2c-9.07,14.56-20.24,26-31.45,32.29-11.88,6.46-22.6,6.46-30,0s-10.56-18.7-8.72-34.13a113.24,113.24,0,0,1,16.76-45.2c9.07-14.56,20.24-26,31.48-32.29,11.85-6.46,22.6-6.46,30,0S219.71,67.54,217.91,82.94Z" fill="#8fb8e4"/><path d="M224.53,24.21c-10.33-9.11-25.22-9.69-42-1.65C165.11,31,148,47.59,134.44,69.38a155.47,155.47,0,0,0-23.7,68.35c-1.61,21.34,3.23,38.1,13.53,47.21s25.19,9.69,42,1.65c17.4-8.36,34.52-25,48.11-46.79A155,155,0,0,0,238,71.42C239.64,50.08,234.86,33.32,224.53,24.21ZM209.16,48.85c7.46,6.46,10.56,18.7,8.75,34.1a113.62,113.62,0,0,1-16.79,45.2c-9.07,14.56-20.24,26-31.45,32.29-11.88,6.46-22.6,6.46-30,0s-10.56-18.7-8.72-34.13a113.24,113.24,0,0,1,16.76-45.2c9.07-14.56,20.24-26,31.48-32.29,11.85-6.55,22.5-6.55,30,0Z" fill="#dce2ff"/><path d="M180.65,52.17C203,39.84,218.23,53.3,214.77,82.27S190.49,144.68,168.18,157s-37.55-1.16-34.13-30.09S158.37,64.51,180.65,52.17Z" opacity="0.2" style="isolation:isolate"/><path d="M180.65,52.17C203,39.84,218.23,53.3,214.77,82.27S190.49,144.68,168.18,157s-37.55-1.16-34.13-30.09S158.37,64.51,180.65,52.17Z" fill="#ba68c8"/><path d="M180.65,52.17C203,39.84,218.23,53.3,214.77,82.27S190.49,144.68,168.18,157s-37.55-1.16-34.13-30.09S158.37,64.51,180.65,52.17Z" fill="#9babec"/><path d="M208.38,76.62C205,105.68,184.1,139,161.79,151.36c-9.2,5.1-17.21,5.78-23.22,2.78-4.13-5.94-5.94-15.27-4.52-27.22,3.45-29.06,24.31-62.41,46.59-74.75,9.23-5.1,17.24-5.78,23.22-2.78C208,55.34,209.8,64.67,208.38,76.62Z" fill="#ba68c8"/><path d="M208.38,76.62C205,105.68,184.1,139,161.79,151.36c-9.2,5.1-17.21,5.78-23.22,2.78-4.13-5.94-5.94-15.27-4.52-27.22,3.45-29.06,24.31-62.41,46.59-74.75,9.23-5.1,17.24-5.78,23.22-2.78C208,55.34,209.8,64.67,208.38,76.62Z" fill="#b5c4ff"/><path d="M186.88,93.34a13.66,13.66,0,0,0-10.66,0c-1.23.36-2.39.77-3.52,1.13a12.21,12.21,0,0,1,4.68-4.65c5.36-3.23,7.62-.48,8.17,2.23l12.92-11.62A14.24,14.24,0,0,0,197,76.91a7.26,7.26,0,0,0-2.36-2.39c-.61-.39-9.4-5.2-10.27-5.42a8.59,8.59,0,0,0-2.42-.32V67.22l-8.33-4.58-10.17,6.1v1.84l.23,6.46s-5,2.1-10.43,11.62l-.65,1.13a25.54,25.54,0,0,0-3.23,12.92h0a9.07,9.07,0,0,0,3.49,8c.23,0,7.1,3.78,8.2,4.52l.77.42.65.26h0l.68.19a2.23,2.23,0,0,0,.65,0h1a18.82,18.82,0,0,0,4.55-.42l2.36-.58,3.23-1,1-.32a13.24,13.24,0,0,1-4.68,4.42,13.43,13.43,0,0,1-3.23,1.45l-4.75-2.2L151,128.63a9,9,0,0,0,3.42,4.71c1.49,1,7.43,4.07,8.72,4.84a8,8,0,0,0,3.58,1.07v1.81l8.36,4.62,10.27-6.17-.32-8.14a37.46,37.46,0,0,0,10.07-11.24h0a25.83,25.83,0,0,0,3.39-13.63A9.69,9.69,0,0,0,195,98.18C193.63,97,187.94,94.05,186.88,93.34Z" fill="#ba68c8"/><path d="M186.88,93.34a13.66,13.66,0,0,0-10.66,0c-1.23.36-2.39.77-3.52,1.13a12.21,12.21,0,0,1,4.68-4.65c5.36-3.23,7.62-.48,8.17,2.23l12.92-11.62A14.24,14.24,0,0,0,197,76.91a7.26,7.26,0,0,0-2.36-2.39c-.61-.39-9.4-5.2-10.27-5.42a8.59,8.59,0,0,0-2.42-.32V67.22l-8.33-4.58-10.17,6.1v1.84l.23,6.46s-5,2.1-10.43,11.62l-.65,1.13a25.54,25.54,0,0,0-3.23,12.92h0a9.07,9.07,0,0,0,3.49,8c.23,0,7.1,3.78,8.2,4.52l.77.42.65.26h0l.68.19a2.23,2.23,0,0,0,.65,0h1a18.82,18.82,0,0,0,4.55-.42l2.36-.58,3.23-1,1-.32a13.24,13.24,0,0,1-4.68,4.42,13.43,13.43,0,0,1-3.23,1.45l-4.75-2.2L151,128.63a9,9,0,0,0,3.42,4.71c1.49,1,7.43,4.07,8.72,4.84a8,8,0,0,0,3.58,1.07v1.81l8.36,4.62,10.27-6.17-.32-8.14a37.46,37.46,0,0,0,10.07-11.24h0a25.83,25.83,0,0,0,3.39-13.63A9.69,9.69,0,0,0,195,98.18C193.63,97,187.94,94.05,186.88,93.34Z" fill="#d7ab2b" style="isolation:isolate"/><g opacity="0.1"><path d="M184.49,98.12a14.14,14.14,0,0,1,10.46-.23c-1.78-1.1-7-3.78-8.17-4.49a13.66,13.66,0,0,0-10.66,0c-1.23.36-2.39.77-3.52,1.13h0a7.52,7.52,0,0,0-.77,3.45C172.06,103.25,177.87,100,184.49,98.12Z"/><path d="M166.76,139.16V141l8.36,4.62h0l-.32-8.14A18,18,0,0,1,166.76,139.16Z"/><path d="M159.37,133.12,151,128.54a9,9,0,0,0,3.42,4.71c1.42,1,6.85,3.78,8.46,4.71A9.43,9.43,0,0,1,159.37,133.12Z"/><path d="M184.94,113.62a2,2,0,0,0-1.91-1.16,23,23,0,0,0-6.85,1.58h-.26a13.24,13.24,0,0,1-4.68,4.42,13.43,13.43,0,0,1-3.23,1.45l3.62,2c.74,3.23,3.39,3.87,7.94,1.13a9.69,9.69,0,0,0,5.65-8A4.62,4.62,0,0,0,184.94,113.62Z"/><polygon points="163.31 68.87 171.64 73.48 171.96 81.62 163.6 77 163.31 68.87"/></g><path d="M171.7,75.29l.26,6.46s-5,2.1-10.46,11.59c-.23.39-.42.77-.61,1.16a25.38,25.38,0,0,0-3.23,12.92h0c.19,4.81,1.78,7.3,4.1,8.36l.65.26h0l.68.19a2.23,2.23,0,0,0,.65,0h1.07a18.82,18.82,0,0,0,4.55-.42l2.36-.58,3.23-1,1.29-.42a21.05,21.05,0,0,1,6.85-1.58,2,2,0,0,1,1.91,1.16,4.62,4.62,0,0,1,.32,1.52,9.69,9.69,0,0,1-5.65,8c-4.55,2.74-7.2,2-7.94-1.13l-12.3,11.11c2.2,6.2,7.46,7.72,15.5,4.33l.32,8.14,10.27-6.17-.32-8.14a37.46,37.46,0,0,0,10.07-11.24h0a25.83,25.83,0,0,0,3.39-13.63c-.42-10.69-7.1-10.3-14.17-8.23s-12.43,5.2-12.66,0a9.69,9.69,0,0,1,5.46-8.1c5.36-3.23,7.62-.48,8.17,2.23l12.92-11.59a14,14,0,0,0-1.49-3.55,7.26,7.26,0,0,0-4.26-3.23,16.34,16.34,0,0,0-10.53,1.71l-.32-8.17-10.17,6.1Z" fill="#fbd050"/><polygon points="185.46 139.38 175.19 145.55 174.87 137.45 176.16 143.81 185.46 139.38" fill="#fbd050"/><path d="M171.67,122l-12.3,11.11,11.53-9.69s1.45,5.75,8.72-.23c-4.55,2.74-7.2,2-7.94-1.13" fill="#fbd050"/><path d="M198.4,80.59A14,14,0,0,0,196.92,77a7.26,7.26,0,0,0-4.26-3.23,8.23,8.23,0,0,1,4.62,6.94L185.46,92.18Z" fill="#fbd050"/><polygon points="182.13 75.52 181 68.77 171.64 73.48 181.81 67.38 182.13 75.52" fill="#fbd050"/><path d="M165.63,185.07c25.83-11.66,48.72-45.2,48.72-45.2-13.59,21.79-30.71,38.42-48.11,46.79-16.73,8-31.58,7.46-42-1.65C124.33,184.94,139.28,196.92,165.63,185.07Z" fill="#dce2ff"/></g></g></g></g></svg>